inDegrees=no
num_controls=7
num_derivatives=13
num_iterations=134
num_multipliers=7
num_parameters=0
num_slacks=7
num_states=26
objective=0.516807
objective_accelerations=0.039278
objective_balance=0.002224
objective_effort=0.043799
objective_height=0.419891
objective_ligament=0.011615
solver_duration=1773.153885
status=Solve_Succeeded
success=true
DataType=double
version=3
OpenSimVersion=4.5
endheader
time	/jointset/ground_pelvis/pelvis_tilt/value	/jointset/ground_pelvis/pelvis_tx/value	/jointset/ground_pelvis/pelvis_ty/value	/jointset/hip_l/hip_flexion_l/value	/jointset/hip_l/hip_adduction_l/value	/jointset/hip_l/hip_rotation_l/value	/jointset/back/lumbar_extension/value	/jointset/patellofemoral_l/patellar_flexion_l/value	/jointset/knee_l/knee_flexion_l/value	/jointset/knee_l/knee_adduction_l/value	/jointset/knee_l/knee_rotation_l/value	/jointset/ankle_l/ankle_angle_l/value	/jointset/subtalar_l/subtalar_angle_l/value	/jointset/ground_pelvis/pelvis_tilt/speed	/jointset/ground_pelvis/pelvis_tx/speed	/jointset/ground_pelvis/pelvis_ty/speed	/jointset/hip_l/hip_flexion_l/speed	/jointset/hip_l/hip_adduction_l/speed	/jointset/hip_l/hip_rotation_l/speed	/jointset/back/lumbar_extension/speed	/jointset/patellofemoral_l/patellar_flexion_l/speed	/jointset/knee_l/knee_flexion_l/speed	/jointset/knee_l/knee_adduction_l/speed	/jointset/knee_l/knee_rotation_l/speed	/jointset/ankle_l/ankle_angle_l/speed	/jointset/subtalar_l/subtalar_angle_l/speed	/forceset/tau_hip_flexion_l	/forceset/tau_hip_adduction_l	/forceset/tau_hip_rotation_l	/forceset/tau_knee_flexion_l	/forceset/tau_ankle_angle_l	/forceset/tau_subtalar_angle_l	/forceset/tau_lumbar_extension	lambda_cid13_p0	lambda_cid13_p1	lambda_cid13_p2	lambda_cid13_p3	lambda_cid13_p4	lambda_cid13_p5	lambda_cid14_p0	/jointset/ground_pelvis/pelvis_tilt/accel	/jointset/ground_pelvis/pelvis_tx/accel	/jointset/ground_pelvis/pelvis_ty/accel	/jointset/hip_l/hip_flexion_l/accel	/jointset/hip_l/hip_adduction_l/accel	/jointset/hip_l/hip_rotation_l/accel	/jointset/back/lumbar_extension/accel	/jointset/patellofemoral_l/patellar_flexion_l/accel	/jointset/knee_l/knee_flexion_l/accel	/jointset/knee_l/knee_adduction_l/accel	/jointset/knee_l/knee_rotation_l/accel	/jointset/ankle_l/ankle_angle_l/accel	/jointset/subtalar_l/subtalar_angle_l/accel	gamma_cid13_p0	gamma_cid13_p1	gamma_cid13_p2	gamma_cid13_p3	gamma_cid13_p4	gamma_cid13_p5	gamma_cid14_p0
0.5	-0.1224408056538955	-0.05691627847872373	0.8253918166193255	0.889363417977197	-0.3238748447458893	-0.1252194713141168	-0.7786697636823176	0.7791786671776998	0.7791786671776321	-0.1108191392496346	-0.1745313937213198	0.06549916842473148	-0.008958124569985522	-0.2117151985108799	-0.2091200373232932	-0.3353999844899033	1.488057466075748	-0.04147032579065412	0.4517918790031573	-0.8399082243592461	1.414026888590682	1.41402688859065	0.1291437839875998	7.66202810492505e-06	0.227028212758327	0.02632376494680869	-0.2831141182681918	0.02126488330714538	-0.002978125107459307	-0.2072958241358447	0.1160037426290188	0.04924220110149394	0.330372851129345	-7.321368191763212	-21.54950616642214	4.632423966629728	-9.459245485881915	-703.1620814548006	-76.54162676830838	-15.23373454206881	0.2873679533876046	0.6476598986004433	-0.1157400432625008	-1.411771865767891	0.2213180816945794	-0.3332356287687556	1.686765380544109	-1.054486025316661	-1.054486025316618	-0.2698510131734374	0.0253204233205692	0.02753350697786656	0.2499752210983012	-3.523460433506438e-08	-5.216267428997407e-07	-5.470544383298269e-08	-7.344496623421646e-08	-6.408098606054965e-08	-4.572942853116936e-08	-6.83658508759355e-08
0.51	-0.1245433227643159	-0.05897496996154002	0.8220327573482876	0.9041712370301694	-0.3242788094555275	-0.1207197899835736	-0.786983540992645	0.7932640269340797	0.7932640269340263	-0.1095413041521521	-0.1745311822665478	0.06777019808971957	-0.00868291269299298	-0.2087571426825005	-0.2026063061909174	-0.3363366752161231	1.473295757874678	-0.03932216383570909	0.4480692666814467	-0.8227545326424267	1.402834750937155	1.402834750937147	0.1264304599684746	2.235209854827014e-05	0.22713318037809	0.02870700418948162	-0.2895846729234183	0.02162734439989644	-0.003178634126871065	-0.2097564377066542	0.1163685489966707	0.04963827532435542	0.336583001525463	-7.424604055739396	-21.65748912276583	4.597146350507692	-9.530653340946829	-707.0602807881791	-76.43477290135014	-14.72112122519187	0.3046845032365204	0.6550085454837334	-0.07136644019792421	-1.539960117848388	0.2117037202761063	-0.4031001994206888	1.743576826822525	-1.183111059985732	-1.183111059982172	-0.2710806992435455	-0.01229476919747517	-0.004720753064351157	0.2308412283251649	-5.365133300589612e-08	-4.187987520565038e-07	9.99835422164984e-08	-4.524502051979809e-08	-7.439090961942174e-08	-3.69594241488005e-08	-7.474884207525514e-08
0.52	-0.1266153272953177	-0.06096816836804705	0.8186665845994084	0.9188251210370173	-0.3246612648520401	-0.1162596000093559	-0.7951230002338899	0.8072311586290043	0.8072311586289598	-0.1082904038154613	-0.1745311915246852	0.07004093760239745	-0.008384199833079035	-0.2056126826271859	-0.1960214220614392	-0.3368226800581894	1.457270456850735	-0.03716846316549957	0.443893607737798	-0.8050446105427403	1.390381276299026	1.390381276299041	0.1237568318308909	-3.648055515660229e-05	0.2269701822962587	0.03102396153108979	-0.2960552275786421	0.02198980549265105	-0.003379143146339212	-0.2122170512774604	0.116733355364324	0.05003434954722157	0.3427931519215822	-7.531034206985255	-21.76578508920607	4.562914998497708	-9.626675607600124	-711.0297725019897	-76.34690171599007	-14.20561153825878	0.3246487987746405	0.6618904980209513	-0.02560286643179092	-1.664490430342511	0.2224258247474756	-0.423844953156387	1.798011457117525	-1.30675342223738	-1.306753422237356	-0.2619118368651445	0.01061587849092633	-0.02605963334097244	0.2367188408853506	-9.124199336476003e-08	-2.642435280452926e-07	3.866276538173976e-07	6.107987417246071e-09	-1.031822798737172e-07	-2.483707707909171e-08	-9.103453748800184e-08
0.53	-0.1286549612290599	-0.06289524741220903	0.815297818248675	0.9333124764054516	-0.3250223548767199	-0.11184206100522	-0.8030827352951204	0.8210674066608735	0.8210674066607923	-0.1070672128725157	-0.1745312882515776	0.07230859730363201	-0.00806292341835178	-0.2022849864856571	-0.189391180403548	-0.3368537290412618	1.439998129004532	-0.03505182412743791	0.4395465854967958	-0.7868238072059318	1.376658343036161	1.376658343036126	0.1208815292043468	8.757768249712484e-06	0.2265107000621005	0.03321427900951319	-0.3024046732089866	0.02240444663552922	-0.00358544744829496	-0.2145190486475966	0.1167038071719992	0.0503352393309042	0.3488175830200365	-7.76568102143726	-21.81002856910966	4.518170090234412	-9.518885635817497	-714.9030986483023	-76.15483715357514	-13.68781741147645	0.3411860708809395	0.664078571045905	0.01964958183755559	-1.788991549758547	0.2058907584104412	-0.4503650148929183	1.845903946574869	-1.436541416354864	-1.436541416362474	-0.3003294276464414	0.000330611276345589	-0.06355553883663309	0.2075983734164544	-1.100683153218141e-07	-1.558881789510705e-07	5.503409479412196e-07	3.717344300425953e-08	-1.150385351299597e-07	-1.221938227653818e-08	-9.748786722382697e-08
0.54	-0.1306604469915792	-0.06475592652551755	0.8119310425073273	0.9476210309778239	-0.3253623569480047	-0.1074700390545582	-0.8108579044880603	0.8347601297325035	0.8347601297323888	-0.1058727729462482	-0.1745311620348385	0.07457012957844822	-0.007720261794421172	-0.1987830483825706	-0.1827414358907476	-0.3364245581810322	1.421510297638354	-0.03295087248637794	0.4347901970429615	-0.768131436884629	1.361676284251541	1.361676284251455	0.1180066284939059	8.108172090896561e-06	0.2257446970126066	0.03530100337176133	-0.3087541188393315	0.02281908777840543	-0.003791751750211715	-0.2168210460177344	0.116674258979674	0.05063612911458486	0.3548420141184906	-8.003937556021361	-21.85452070474757	4.474471207543908	-9.439924126182222	-718.856517430904	-75.99792574357693	-13.16849098632722	0.3594971910861493	0.6657910690028203	0.06644110222860965	-1.907591134337712	0.2192883453471417	-0.5057181957228027	1.892324854016369	-1.558578526588571	-1.558578526588581	-0.2618314536445073	0.001438294577900467	-0.08736379640812894	0.2160002176502969	-1.081340926640998e-07	-9.864758508415595e-08	5.780456780478482e-07	4.57930959912388e-08	-1.081580674096328e-07	9.46356826183984e-10	-9.306283493412175e-08
0.55	-0.1326301099150707	-0.066550048665082	0.8085708718232901	0.9617387459828903	-0.3256814365621966	-0.103147209093478	-0.8184438864132727	0.8482967940964153	0.8482967940963577	-0.104707306818884	-0.1745309673784951	0.07682250355793481	-0.007357257741032561	-0.195124545593667	-0.1760832252854584	-0.335530657594891	1.401833776076728	-0.03087285653276062	0.4297216967527123	-0.7489988592252569	1.345448000285644	1.345448000285624	0.1150717556175572	2.885939446276511e-05	0.2246797796612662	0.03727665116623786	-0.3147844497619382	0.02305235743365882	-0.003982018324815261	-0.2193259964809692	0.1168328975127154	0.05084622530580084	0.3605813667853587	-8.180551347730672	-21.86807593252293	4.423214311207444	-9.347847128657797	-722.7113184964627	-75.8230215482655	-12.64848025238937	0.3727634583810258	0.6658111657417369	0.1126818105186853	-2.027536620386522	0.2008145031739149	-0.5156152394917202	1.933637561782338	-1.686223438555554	-1.686223438545799	-0.3115363522761695	0.002217258206248794	-0.1236029137128551	0.1848151027372719	-1.038700330873533e-07	-5.484315560763877e-08	5.859119156614918e-07	5.052080426794384e-08	-9.939201623856836e-08	1.258738883840274e-08	-8.792786390573965e-08
0.5600000000000001	-0.1345624404835553	-0.06827759367670362	0.8052220035998566	0.9756537249816788	-0.3259799847602913	-0.09887670399406201	-0.8258365598939141	0.8616649215992768	0.8616649215992735	-0.1035716336498182	-0.1745306004654975	0.07906271892206498	-0.006975203601220996	-0.1913165773812226	-0.16942601030218	-0.3341640660602757	1.380963096382638	-0.02884458926694908	0.4243252247098342	-0.7294697479704969	1.327968912041133	1.327968912041177	0.1120480368353649	4.255950241107902e-05	0.2233129739412915	0.03911102065635219	-0.3208147806845423	0.02328562708891602	-0.004172284899457136	-0.2218309469442018	0.1169915360457579	0.05105632149702142	0.366320719452228	-8.361644851104456	-21.88174246548379	4.372998696657162	-9.282177674106572	-726.6577728228172	-75.68396980082093	-12.12875229578489	0.389390275794285	0.6655919446006607	0.1609792919234161	-2.146422760830761	0.2093386077859837	-0.5713125462485561	1.971631573093933	-1.808739382311475	-1.808739382311567	-0.2796006348132196	2.807169318973712e-05	-0.1477414701349834	0.1877445567778572	-9.681016920776838e-08	-2.716212339959791e-08	5.699719622835539e-07	5.057817889231995e-08	-8.836326492661893e-08	2.239877234201747e-08	-8.194096639094531e-08
0.5700000000000001	-0.1364559848082895	-0.06993862961169986	0.8018891562196888	0.9893542069750003	-0.3262584398678489	-0.09466175588727933	-0.8330320569902483	0.8748521532591116	0.8748521532591275	-0.102466494214746	-0.1745300599868831	0.08128781183644704	-0.0065754338346394	-0.1873687951529207	-0.1627867966408958	-0.3323266875009596	1.358944408879619	-0.02685478671905968	0.4186075419281082	-0.7095760684528544	1.309278643459142	1.309278643459204	0.108972028109519	6.171471687747376e-05	0.2216575265251831	0.04081973737704027	-0.3266129534941856	0.02346394923159031	-0.004336688952463096	-0.2242633249778482	0.1169639168008136	0.0511858879780162	0.3717943107739476	-8.59568880695997	-21.85036760337618	4.314692445931765	-9.103769780076092	-730.4081616078171	-75.4865744819415	-11.61033400175297	0.4009851445466167	0.6622532074475859	0.2069090838286313	-2.257939142876213	0.1924722129622031	-0.5805967013431116	2.006276567621281	-1.928971355242626	-1.928971355239842	-0.3227618203425364	0.002397258896454093	-0.181655640896118	0.1588921464023505	-8.889673299878182e-08	-2.472774504020714e-11	5.489952545112042e-07	4.999662396764343e-08	-7.677825599001572e-08	3.10948256242776e-08	-7.529163831493091e-08
0.58	-0.1383093487211009	-0.0715334399839722	0.7985770410142928	1.002828832613724	-0.3265172627229934	-0.09050570471975543	-0.8400270092061015	0.8878465220813054	0.8878465220813425	-0.1013923470327038	-0.1745294203536122	0.08349490842395856	-0.006159285517513312	-0.1832804949966801	-0.1561808977574003	-0.3300176311059249	1.335791825463052	-0.02491813878429878	0.4125458368580427	-0.6893607718743383	1.289396344513165	1.289396344513246	0.1058495862287821	6.239043426765484e-05	0.2197137085671811	0.04238673076525101	-0.3324111263038287	0.02364227137426443	-0.004501093005449635	-0.2266957030114951	0.1169362975558691	0.05131545445901062	0.3772679020956675	-8.834978275391421	-21.81894271677505	4.257370639416189	-8.948050373759687	-734.2591921849144	-75.32388684575682	-11.09426584375359	0.4174938613820105	0.6589289890429372	0.2553148590671381	-2.373201943540404	0.1987076851602823	-0.6401170039164273	2.035954985268604	-2.047145455108593	-2.047145455108563	-0.2888872657914435	-0.003667827722055838	-0.205415578513682	0.1593998902823881	-7.987166770964445e-08	2.64046761189345e-08	5.214590526438069e-07	4.858297474652635e-08	-6.446881851897983e-08	3.833835582756427e-08	-6.777960997314167e-08
0.59	-0.1401211632847229	-0.07306239453729589	0.7952903513139098	1.016066464878997	-0.3267569058792964	-0.08641193885677916	-0.8468183129256232	0.9006363292515692	0.9006363292516145	-0.1003494596817588	-0.174528774209471	0.08568124001522757	-0.005728055103290873	-0.1790596133113244	-0.1496188374848072	-0.3272432574508811	1.311557322021614	-0.02301922612772197	0.4061517228313457	-0.668860831762328	1.268383272583409	1.268383272583352	0.1027265840295781	6.332988549219091e-05	0.2175123156146742	0.04383813937377005	-0.3378536539104507	0.02369545399568176	-0.004640277738122552	-0.2291546654584918	0.1169355380239535	0.05137082126174459	0.3823841298207944	-9.052130126778637	-21.75804358453973	4.194063826869788	-8.761507581305898	-737.8320059507629	-75.13154561975661	-10.58180074110711	0.4277965986786874	0.6535304107047758	0.3000448952475609	-2.475181721089783	0.1840981905639425	-0.6474578215828669	2.062884564316223	-2.15564792961067	-2.155647929631302	-0.3241824234933338	0.001548134344634942	-0.2335398959021274	0.1347635307266487	-7.09236288720657e-08	4.910672617620666e-08	4.912237591531298e-07	4.670675998347717e-08	-5.29655629012618e-08	4.424503695673725e-08	-6.039460369771392e-08
